<?xml version="1.0" encoding="UTF-8" standalone="no"?>
<!DOCTYPE svg PUBLIC "-//W3C//DTD SVG 1.1//EN" "http://www.w3.org/Graphics/SVG/1.1/DTD/svg11.dtd">
<svg width="100%" height="100%" viewBox="0 0 110 110" version="1.1" xmlns="http://www.w3.org/2000/svg" xmlns:xlink="http://www.w3.org/1999/xlink" xml:space="preserve" xmlns:serif="http://www.serif.com/" style="fill-rule:evenodd;clip-rule:evenodd;stroke-linejoin:round;stroke-miterlimit:2;">
    <g transform="matrix(1,0,0,1,-0.23,-0.765)">
        <g transform="matrix(1,0,0,1,10,10)">
            <path d="M24.07,6.34L47.66,15.22L43.28,26.95L19.69,18.07L24.07,6.34Z" style="fill:white;"/>
        </g>
        <g transform="matrix(1,0,0,1,10,10)">
            <path d="M61.89,3.44L69.68,27.5L57.81,31.37L50.02,7.31L61.89,3.44Z" style="fill:white;"/>
        </g>
        <g transform="matrix(1,0,0,1,10,10)">
            <path d="M87.73,31.34L73.85,52.46L63.43,45.56L77.31,24.44L87.73,31.34Z" style="fill:white;"/>
        </g>
        <g transform="matrix(1,0,0,1,10,10)">
            <path d="M82.12,69.01L57.02,71.28L55.9,58.8L81,56.53L82.12,69.01Z" style="fill:white;"/>
        </g>
        <g transform="matrix(1,0,0,1,10,10)">
            <path d="M49.29,88.09L31.87,69.81L40.89,61.15L58.31,79.43L49.29,88.09Z" style="fill:white;"/>
        </g>
        <g transform="matrix(1,0,0,1,10,10)">
            <path d="M13.96,74.23L17.34,49.16L29.71,50.84L26.33,75.91L13.96,74.23Z" style="fill:white;"/>
        </g>
        <g transform="matrix(1,0,0,1,10,10)">
            <path d="M2.73,37.82L24.36,24.84L30.76,35.59L9.13,48.57L2.73,37.82Z" style="fill:white;"/>
        </g>
    </g>
</svg>
