<?xml version="1.0" encoding="UTF-8" standalone="no"?>
<!DOCTYPE svg PUBLIC "-//W3C//DTD SVG 1.1//EN" "http://www.w3.org/Graphics/SVG/1.1/DTD/svg11.dtd">
<svg width="100%" height="100%" viewBox="0 0 800 800" version="1.1" xmlns="http://www.w3.org/2000/svg" xmlns:xlink="http://www.w3.org/1999/xlink" xml:space="preserve" xmlns:serif="http://www.serif.com/" style="fill-rule:evenodd;clip-rule:evenodd;stroke-linejoin:round;stroke-miterlimit:2;">
    <g transform="matrix(50,0,0,50,0,0)">
        <path d="M2.25,0C1.016,0 -0,1.016 0,2.25L0,9.75C0,10.984 1.016,12 2.25,12L2.5,12C2.911,12 3.25,11.661 3.25,11.25C3.25,10.839 2.911,10.5 2.5,10.5L2.25,10.5C1.839,10.5 1.5,10.161 1.5,9.75L1.5,2.25C1.5,1.839 1.839,1.5 2.25,1.5L9.75,1.5C10.161,1.5 10.5,1.839 10.5,2.25L10.5,2.5C10.5,2.911 10.839,3.25 11.25,3.25C11.661,3.25 12,2.911 12,2.5L12,2.25C12,1.016 10.984,0 9.75,0L2.25,0Z" style="fill:white;fill-rule:nonzero;"/>
        <path d="M6.25,4C5.016,4 4,5.016 4,6.25L4,13.75C4,14.984 5.016,16 6.25,16L13.75,16C14.984,16 16,14.984 16,13.75L16,6.25C16,5.016 14.984,4 13.75,4L6.25,4ZM5.5,6.25C5.5,5.839 5.839,5.5 6.25,5.5L13.75,5.5C14.161,5.5 14.5,5.839 14.5,6.25L14.5,13.75C14.5,14.161 14.161,14.5 13.75,14.5L6.25,14.5C5.839,14.5 5.5,14.161 5.5,13.75L5.5,6.25Z" style="fill:white;"/>
        <g transform="matrix(0.0850002,0,0,0.0850002,5.21373,5.37064)">
            <g transform="matrix(1,0,0,1,10,10)">
                <path d="M24.07,6.34L47.66,15.22L43.28,26.95L19.69,18.07L24.07,6.34Z" style="fill:white;"/>
            </g>
            <g transform="matrix(1,0,0,1,10,10)">
                <path d="M61.89,3.44L69.68,27.5L57.81,31.37L50.02,7.31L61.89,3.44Z" style="fill:white;"/>
            </g>
            <g transform="matrix(1,0,0,1,10,10)">
                <path d="M87.73,31.34L73.85,52.46L63.43,45.56L77.31,24.44L87.73,31.34Z" style="fill:white;"/>
            </g>
            <g transform="matrix(1,0,0,1,10,10)">
                <path d="M82.12,69.01L57.02,71.28L55.9,58.8L81,56.53L82.12,69.01Z" style="fill:white;"/>
            </g>
            <g transform="matrix(1,0,0,1,10,10)">
                <path d="M49.29,88.09L31.87,69.81L40.89,61.15L58.31,79.43L49.29,88.09Z" style="fill:white;"/>
            </g>
            <g transform="matrix(1,0,0,1,10,10)">
                <path d="M13.96,74.23L17.34,49.16L29.71,50.84L26.33,75.91L13.96,74.23Z" style="fill:white;"/>
            </g>
            <g transform="matrix(1,0,0,1,10,10)">
                <path d="M2.73,37.82L24.36,24.84L30.76,35.59L9.13,48.57L2.73,37.82Z" style="fill:white;"/>
            </g>
        </g>
    </g>
</svg>
