<?xml version="1.0" encoding="UTF-8" standalone="no"?>
<!DOCTYPE svg PUBLIC "-//W3C//DTD SVG 1.1//EN" "http://www.w3.org/Graphics/SVG/1.1/DTD/svg11.dtd">
<svg width="100%" height="100%" viewBox="0 0 200 120" version="1.1" xmlns="http://www.w3.org/2000/svg" xmlns:xlink="http://www.w3.org/1999/xlink" xml:space="preserve" xmlns:serif="http://www.serif.com/" style="fill-rule:evenodd;clip-rule:evenodd;">
    <g>
        <path d="M160.99,22.5L160.99,98.255C160.99,99.455 160.015,100.43 158.815,100.43L41.5,100.43C40.3,100.43 39.325,99.455 39.325,98.255L39.325,22.5C39.325,21.3 40.3,20.325 41.5,20.325L158.815,20.325C160.015,20.325 160.99,21.3 160.99,22.5Z" style="fill:white;stroke:black;stroke-width:0.65px;"/>
        <path d="M158.159,25.051L158.159,90.086C158.159,91.052 157.375,91.836 156.409,91.836L43.898,91.836C42.933,91.836 42.148,91.052 42.148,90.086L42.148,25.051C42.148,24.085 42.933,23.301 43.898,23.301L156.409,23.301C157.375,23.301 158.159,24.085 158.159,25.051Z" style="fill:none;stroke:black;stroke-width:0.5px;"/>
        <path d="M157.468,25.242L157.468,89.89C157.468,90.58 156.908,91.14 156.218,91.14L44.094,91.14C43.404,91.14 42.844,90.58 42.844,89.89L42.844,25.242C42.844,24.552 43.404,23.992 44.094,23.992L156.218,23.992C156.908,23.992 157.468,24.552 157.468,25.242Z" style="fill:none;stroke:black;stroke-width:0.25px;"/>
        <rect x="90.324" y="94.066" width="3.896" height="3.896" style="fill:none;fill-rule:nonzero;"/>
        <g>
            <path d="M108.317,97.206L110.234,97.206L110.234,96.857L108.711,96.857L108.711,94.844L108.317,94.844L108.317,97.206Z" style="fill-rule:nonzero;stroke:black;stroke-width:0.07px;"/>
            <path d="M107.351,97.206L107.72,97.206L107.72,94.844L107.338,94.844L107.338,94.879L107.347,96.683L105.626,94.855L105.615,94.844L105.231,94.844L105.231,97.206L105.612,97.206L105.612,97.171L105.606,95.363L107.341,97.195L107.351,97.206Z" style="fill-rule:nonzero;stroke:black;stroke-width:0.07px;"/>
            <path d="M104.111,97.206L104.49,97.206L104.49,94.844L103.992,94.844L103.982,94.864L103.078,96.74L102.175,94.864L102.165,94.844L101.66,94.844L101.66,97.206L102.036,97.206L102.036,97.171L102.021,95.361L102.888,97.186L102.897,97.206L103.247,97.206L103.256,97.186L104.127,95.361L104.112,97.171L104.111,97.206Z" style="fill-rule:nonzero;stroke:black;stroke-width:0.07px;"/>
            <path d="M100.371,94.915L100.38,94.881C100.278,94.854 100.204,94.844 100.007,94.844L98.41,94.844L98.41,97.206L98.808,97.206L98.808,96.287L99.864,96.287L100.63,97.194L100.64,97.206L101.159,97.206L101.108,97.148L100.302,96.225C100.394,96.208 100.446,96.191 100.497,96.171L100.498,96.171C100.863,96.019 100.89,95.677 100.89,95.551C100.89,95.221 100.704,94.966 100.38,94.881L100.371,94.915ZM100.371,94.915C100.679,94.996 100.855,95.236 100.855,95.551C100.855,95.674 100.829,95.996 100.484,96.139L98.48,94.879L100.007,94.879C100.202,94.879 100.273,94.889 100.371,94.915ZM100.428,95.357L100.428,95.358C100.479,95.444 100.482,95.524 100.482,95.564C100.482,95.687 100.434,95.757 100.406,95.792L100.405,95.792C100.348,95.865 100.27,95.904 100.182,95.925C100.093,95.946 99.996,95.948 99.903,95.948L98.805,95.948L98.805,95.187L100.03,95.187C100.119,95.187 100.196,95.191 100.263,95.214C100.328,95.237 100.383,95.279 100.428,95.357Z" style="fill-rule:nonzero;stroke:black;stroke-width:0.07px;"/>
            <path d="M96.723,95.184L97.832,95.184L97.832,94.844L95.164,94.844L95.164,95.184L96.269,95.184L96.269,97.187L96.723,97.187L96.723,95.184Z" style="fill-rule:nonzero;stroke:black;stroke-width:0.07px;"/>
        </g>
    </g>
</svg>
