<svg clip-rule="evenodd" fill-rule="evenodd" stroke-miterlimit="10" viewBox="0 0 200 120" xmlns="http://www.w3.org/2000/svg" xmlns:xlink="http://www.w3.org/1999/xlink"><clipPath id="a"><path clip-rule="evenodd" d="m0 0h200v120h-200z"/></clipPath><clipPath id="b"><path clip-rule="evenodd" d="m-188-102h576v324h-576z"/></clipPath><g clip-path="url(#a)"><path d="m0 0h200v120h-200z" fill="#fff" fill-rule="nonzero"/><g clip-path="url(#b)"><path d="m-179.024-101.895v324m9.3-324v324m9.3-324v324m9.3-324v324m9.3-324v324m9.3-324v324m9.3-324v324m9.3-324v324m9.3-324v324m9.3-324v324m9.3-324v324m9.3-324v324m9.3-324v324m9.3-324v324m9.3-324v324m9.3-324v324m9.3-324v324m9.3-324v324m9.3-324v324m9.3-324v324m9.3-324v324m9.3-324v324m9.3-324v324m9.3-324v324m9.3-324v324m9.3-324v324m9.3-324v324m9.3-324v324m9.3-324v324m9.3-324v324m9.3-324v324m9.3-324v324m9.3-324v324m9.3-324v324m9.3-324v324m9.3-324v324m9.3-324v324m9.3-324v324m9.3-324v324m9.3-324v324m9.3-324v324m9.3-324v324m9.3-324v324m9.3-324v324m9.3-324v324m9.3-324v324m9.3-324v324m9.3-324v324m9.3-324v324m9.3-324v324m9.3-324v324m9.3-324v324m9.3-324v324m9.3-324v324m9.3-324v324m9.3-324v324m9.3-324v324m9.3-324v324m9.3-324v324m9.3-324v324m9.3-324v324m-566.976-320.099h576m-576 9.3h576m-576 9.3h576m-576 9.3h576m-576 9.3h576m-576 9.3h576m-576 9.3h576m-576 9.3h576m-576 9.3h576m-576 9.3h576m-576 9.299h576m-576 9.3h576m-576 9.301h576m-576 9.3h576m-576 9.3h576m-576 9.3h576m-576 9.3h576m-576 9.3h576m-576 9.3h576m-576 9.3h576m-576 9.3h576m-576 9.3h576m-576 9.299h576m-576 9.3h576m-576 9.3h576m-576 9.3h576m-576 9.3h576m-576 9.3h576m-576 9.3h576m-576 9.3h576m-576 9.3h576m-576 9.3h576m-576 9.3h576m-576 9.3h576m-576 9.3h576" fill="none" stroke="#000" stroke-width=".3"/></g><path d="m160.99 22.5v75.755c0 1.2-.975 2.175-2.175 2.175h-117.315c-1.2 0-2.175-.975-2.175-2.175v-75.755c0-1.2.975-2.175 2.175-2.175h117.315c1.2 0 2.175.975 2.175 2.175z" fill="#fff" stroke="#000" stroke-miterlimit="4" stroke-width=".65"/><path d="m158.159 25.051v65.035c0 .966-.784 1.75-1.75 1.75h-112.511c-.965 0-1.75-.784-1.75-1.75v-65.035c0-.966.785-1.75 1.75-1.75h112.511c.966 0 1.75.784 1.75 1.75z" fill="none" stroke="#000" stroke-miterlimit="4" stroke-width=".5"/><path d="m157.468 25.242v64.648c0 .69-.56 1.25-1.25 1.25h-112.124c-.69 0-1.25-.56-1.25-1.25v-64.648c0-.69.56-1.25 1.25-1.25h112.124c.69 0 1.25.56 1.25 1.25z" fill="none" stroke="#000" stroke-miterlimit="4" stroke-width=".25"/><path d="m90.324 94.066h3.896v3.896h-3.896z" fill="none"/><g fill-rule="nonzero"><path d="m108.317 97.206h1.917v-.349h-1.523v-2.013h-.394z" stroke="#000" stroke-miterlimit="4" stroke-width=".07"/><path d="m107.351 97.206h.369v-2.362h-.382v.035l.009 1.804-1.721-1.828-.011-.011h-.384v2.362h.381v-.035l-.006-1.808 1.735 1.832z" stroke="#000" stroke-miterlimit="4" stroke-width=".07"/><path d="m104.111 97.206h.379v-2.362h-.498l-.01.02-.904 1.876-.903-1.876-.01-.02h-.505v2.362h.376v-.035l-.015-1.81.867 1.825.009.02h.35l.009-.02.871-1.825-.015 1.81z" stroke="#000" stroke-miterlimit="4" stroke-width=".07"/><path d="m100.371 94.915.009-.034c-.102-.027-.176-.037-.373-.037h-1.597v2.362h.398v-.919h1.056l.766.907.01.012h.519l-.051-.058-.806-.923c.092-.017.144-.034.195-.054h.001c.365-.152.392-.494.392-.62 0-.33-.186-.585-.51-.67zm0 0c.308.081.484.321.484.636 0 .123-.026.445-.371.588l-2.004-1.26h1.527c.195 0 .266.01.364.036zm.057.442v.001c.051.086.054.166.054.206 0 .123-.048.193-.076.228h-.001c-.057.073-.135.112-.223.133-.089.021-.186.023-.279.023h-1.098v-.761h1.225c.089 0 .166.004.233.027.065.023.12.065.165.143z" stroke="#000" stroke-miterlimit="4" stroke-width=".07"/><path d="m96.723 95.184h1.109v-.34h-2.668v.34h1.105v2.003h.454z" stroke="#000" stroke-miterlimit="4" stroke-width=".07"/></g></g></svg>